<svg width="316" height="259" viewBox="0 0 316 259" fill="none" xmlns="http://www.w3.org/2000/svg">
<mask id="mask0_8_38" style="mask-type:luminance" maskUnits="userSpaceOnUse" x="0" y="0" width="316" height="259">
<path d="M0.583313 0.333008H315.583V259H0.583313V0.333008Z" fill="white"/>
</mask>
<g mask="url(#mask0_8_38)">
<path d="M92.8125 255.271L142.349 205.734C144.885 203.198 149.01 203.203 151.542 205.734L195.193 249.385C199.891 254.083 207.547 254.083 212.25 249.385L227.422 234.208C229.703 231.932 230.958 228.901 230.958 225.677C230.958 222.453 229.703 219.427 227.422 217.146L155.474 145.203C150.776 140.5 143.12 140.5 138.417 145.203L60.5781 223.036C55.875 227.744 55.875 235.396 60.5781 240.104L75.75 255.271C78.0989 257.625 81.1927 258.802 84.2812 258.802C87.3698 258.802 90.4583 257.625 92.8125 255.271ZM296.703 221.536L311.88 206.359C314.156 204.083 315.411 201.052 315.411 197.833C315.411 194.609 314.156 191.578 311.88 189.297L211.63 89.0518C206.922 84.3434 199.271 84.3434 194.568 89.0518L179.396 104.224C174.693 108.927 174.693 116.578 179.396 121.281L279.646 221.536C281.995 223.885 285.083 225.062 288.177 225.062C291.26 225.062 294.354 223.885 296.703 221.536ZM27.8229 202.343C24.5989 202.343 21.5677 201.093 19.2916 198.812L4.11977 183.64C1.83852 181.359 0.583313 178.333 0.583313 175.109C0.583313 171.885 1.83852 168.859 4.11977 166.583L166.802 3.89551C171.505 -0.807617 179.161 -0.807617 183.865 3.89551L199.031 19.0674C203.74 23.7705 203.74 31.4268 199.031 36.1299L36.3541 198.812C34.0729 201.093 31.0416 202.343 27.8229 202.343Z" fill="black"/>
</g>
</svg>
